<?xml version="1.0" encoding="iso-8859-1"?>
<!-- Generator: Adobe Illustrator 16.0.0, SVG Export Plug-In . SVG Version: 6.00 Build 0)  -->
<!DOCTYPE svg PUBLIC "-//W3C//DTD SVG 1.1//EN" "http://www.w3.org/Graphics/SVG/1.1/DTD/svg11.dtd">
<svg version="1.1" id="Capa_1" xmlns="http://www.w3.org/2000/svg" xmlns:xlink="http://www.w3.org/1999/xlink" x="0px" y="0px"
	 width="89.999px" height="79.999px" viewBox="0 0 89.999 79.999" style="enable-background:new 0 0 89.999 79.999;"
	 xml:space="preserve">
<path d="M89.551,19.201c-5.029,28.863-33.127,53.301-41.577,58.883c-8.454,5.582-16.163-2.236-18.96-8.148
	c-3.201-6.738-12.793-43.285-15.307-46.311C11.195,20.596,3.656,26.65,3.656,26.65L0,21.768c0,0,15.307-18.623,26.957-20.951
	c12.35-2.469,12.332,19.318,15.301,31.416c2.873,11.701,4.807,18.398,7.312,18.398c2.514,0,7.311-6.525,12.562-16.531
	c5.264-10.016-0.225-18.857-10.505-12.568C55.738-3.605,94.578-9.65,89.551,19.201z"/>
<g>
</g>
<g>
</g>
<g>
</g>
<g>
</g>
<g>
</g>
<g>
</g>
<g>
</g>
<g>
</g>
<g>
</g>
<g>
</g>
<g>
</g>
<g>
</g>
<g>
</g>
<g>
</g>
<g>
</g>
</svg>
