<?xml version="1.0" encoding="iso-8859-1"?>
<!-- Generator: Adobe Illustrator 15.1.0, SVG Export Plug-In . SVG Version: 6.00 Build 0)  -->
<!DOCTYPE svg PUBLIC "-//W3C//DTD SVG 1.1//EN" "http://www.w3.org/Graphics/SVG/1.1/DTD/svg11.dtd">
<svg version="1.1" xmlns="http://www.w3.org/2000/svg" xmlns:xlink="http://www.w3.org/1999/xlink" x="0px" y="0px" width="48px"
	 height="48px" viewBox="0 0 48 48" style="enable-background:new 0 0 48 48;" xml:space="preserve">
<g id="_x30_16_x5F_V">
	<path style="fill-rule:evenodd;clip-rule:evenodd;fill:#E24C3B;" d="M48,42.09c0,3.264-2.646,5.91-5.91,5.91H5.911
		C2.647,48,0,45.354,0,42.09V5.911C0,2.646,2.647,0,5.911,0H42.09C45.354,0,48,2.646,48,5.911V42.09z"/>
	<g>
		<path style="fill:#FFFFFF;" d="M13.268,11.617c0,0-0.014,0.081-0.035,0.227c0.01-0.076,0.025-0.151,0.047-0.227H13.268z"/>
		<path style="fill:#FFFFFF;" d="M35.139,11.617h-0.012c0.021,0.076,0.037,0.151,0.047,0.227
			C35.152,11.698,35.139,11.617,35.139,11.617z"/>
		<path style="fill:#FFFFFF;" d="M13.23,11.856c0-0.004,0.001-0.008,0.002-0.012C13.231,11.848,13.23,11.852,13.23,11.856z"/>
		<path style="fill:#FFFFFF;" d="M35.174,11.844c0.001,0.004,0.002,0.008,0.002,0.012C35.176,11.852,35.175,11.848,35.174,11.844z"
			/>
		<path style="fill:#FFFFFF;" d="M35.176,11.856c0-0.004-0.001-0.008-0.002-0.012c-0.01-0.076-0.025-0.151-0.047-0.227
			c-0.583-2.147-5.251-3.691-10.924-3.691S13.862,9.47,13.279,11.617c-0.021,0.076-0.037,0.151-0.047,0.227
			c-0.001,0.004-0.002,0.007-0.002,0.012c-0.206,1.341-1.195,7.235-0.958,9.712c0.267,2.76,0.995,9.18,0.995,9.18
			s0.598,2.89,4.044,6.164c1.642,1.559,6.72,5.125,7.405,5.102c0.686,0.023,4.678-3.344,6.379-5.102
			c3.305-3.418,4.043-6.164,4.043-6.164s0.73-6.419,0.995-9.18C36.371,19.091,35.382,13.197,35.176,11.856z"/>
	</g>
	<path d="M32.248,28.213c0,0-0.994,1.332-1.477,1.813c-0.48,0.481-1.316,0.546-2.615,0.546c-1.301,0-2.296-1.926-2.296-1.926
		l-1.38,0.037L23.1,28.646c0,0-0.994,1.926-2.295,1.926s-2.135-0.064-2.616-0.546s-1.477-1.813-1.477-1.813h-0.963
		c0,0,1.284,2.889,2.761,3.322S22.17,32,22.17,32s0.802,0.161,1.348-0.625c0.546-0.787,0.898-1.262,0.898-1.262l0.064-0.02
		l0.064,0.02c0,0,0.353,0.475,0.898,1.262C25.988,32.161,26.791,32,26.791,32s2.184-0.031,3.66-0.465s2.76-3.322,2.76-3.322H32.248z
		"/>
	<path d="M26.377,34.681h-3.418c0,0,1.01,0.899,0.738,1.621c-0.273,0.723-0.596,1.605-0.347,2.873
		c0.25,1.269,1.039,4.017,1.04,4.019c0.041,0.115,0.148,0.197,0.277,0.197c0.128,0,0.236-0.082,0.276-0.197
		c0.001-0.002,0.79-2.75,1.04-4.019c0.25-1.268-0.073-2.15-0.346-2.873C25.366,35.58,26.377,34.681,26.377,34.681z"/>
	<ellipse transform="matrix(0.9957 -0.0926 0.0926 0.9957 -1.8105 2.8968)" cx="30.322" cy="20.966" rx="2.809" ry="0.859"/>
	<path d="M27.546,18.422c0,0,3.37-2.327,4.814-2.151c1.444,0.177,2.103,0.562,2.424,0.963c0.321,0.401,0.53,0.305,0-0.401
		s-1.604-1.733-3.948-1.428c-2.344,0.305-4.141,1.846-4.462,2.199S25.78,19.626,27.546,18.422z"/>
	<ellipse transform="matrix(-0.9957 -0.0926 0.0926 -0.9957 34.1496 43.5161)" cx="18.084" cy="20.966" rx="2.809" ry="0.859"/>
	<path d="M20.86,18.422c0,0-3.37-2.327-4.814-2.151c-1.444,0.177-2.103,0.562-2.424,0.963c-0.321,0.401-0.53,0.305,0-0.401
		s1.604-1.733,3.948-1.428c2.344,0.305,4.141,1.846,4.462,2.199S22.627,19.626,20.86,18.422z"/>
</g>
<g id="Layer_1">
</g>
</svg>
